{
  "source": "C:\\Users\\Peter\\Desktop\\stuff\\MIUN\\quantitative_research\\video_compression\\videos\\BVI-HD\\BVI-HD_CDVL_videos\\ORIG\\MartialArts_1920x1080_60fps.mp4",
  "output": "C:\\Users\\Peter\\Desktop\\stuff\\MIUN\\quantitative_research\\video_compression\\compressed_videos\\BVI-HD\\vp9\\8\\MartialArts_1920x1080_60fps_vp9.webm",
  "codec": "vp9",
  "ok": "Input #0, mov,mp4,m4a,3gp,3g2,mj2, from 'C:\\Users\\Peter\\Desktop\\stuff\\MIUN\\quantitative_research\\video_compression\\videos\\BVI-HD\\BVI-HD_CDVL_videos\\ORIG\\MartialArts_1920x1080_60fps.mp4':\n  Metadata:\n    major_brand     : isom\n    minor_version   : 512\n    compatible_brands: isomiso2avc1mp41\n    encoder         : Lavf54.28.101\n  Duration: 00:00:05.00, start: 0.000000, bitrate: 120609 kb/s\n  Stream #0:0[0x1](und): Video: h264 (High 4:4:4 Predictive) (avc1 / 0x31637661), yuv420p(progressive), 1920x1080, 120605 kb/s, 60 fps, 60 tbr, 60 tbn (default)\n    Metadata:\n      handler_name    : VideoHandler\n      vendor_id       : [0][0][0][0]\n[out#0/webm @ 0000024f21eb8f80] Codec AVOption b:a (set bitrate (in bits/s)) has not been used for any stream. The most likely reason is either wrong type (e.g. a video option with no video streams) or that it is a private option of some decoder which was not actually used for any stream.\nStream mapping:\n  Stream #0:0 -> #0:0 (h264 (native) -> vp9 (libvpx-vp9))\nPress [q] to stop, [?] for help\n[libvpx-vp9 @ 0000024f224905c0] v1.15.2-100-g40561f514\nOutput #0, webm, to 'C:\\Users\\Peter\\Desktop\\stuff\\MIUN\\quantitative_research\\video_compression\\compressed_videos\\BVI-HD\\vp9\\8\\MartialArts_1920x1080_60fps_vp9.webm':\n  Metadata:\n    major_brand     : isom\n    minor_version   : 512\n    compatible_brands: isomiso2avc1mp41\n    encoder         : Lavf62.3.100\n  Stream #0:0(und): Video: vp9, yuv420p(tv, progressive), 1920x1080, q=2-31, 8000 kb/s, 60 fps, 1k tbn (default)\n    Metadata:\n      encoder         : Lavc62.11.100 libvpx-vp9\n      handler_name    : VideoHandler\n      vendor_id       : [0][0][0][0]\n    Side data:\n      cpb: bitrate max/min/avg: 0/0/0 buffer size: 8000000 vbv_delay: N/A\nframe=    1 fps=0.0 q=12.0 size=       1KiB time=00:00:00.01 bitrate= 303.8kbits/s speed=0.0321x elapsed=0:00:00.51    \nframe=    8 fps=7.6 q=20.0 size=       1KiB time=00:00:00.13 bitrate=  38.0kbits/s speed=0.127x elapsed=0:00:01.05    \nframe=   12 fps=7.6 q=18.0 size=       1KiB time=00:00:00.18 bitrate=  27.6kbits/s speed=0.117x elapsed=0:00:01.57    \nframe=   15 fps=7.0 q=18.0 size=       1KiB time=00:00:00.25 bitrate=  20.3kbits/s speed=0.117x elapsed=0:00:02.13    \nframe=   19 fps=7.1 q=18.0 size=       1KiB time=00:00:00.31 bitrate=  16.0kbits/s speed=0.118x elapsed=0:00:02.67    \nframe=   22 fps=6.8 q=18.0 size=       1KiB time=00:00:00.36 bitrate=  13.8kbits/s speed=0.114x elapsed=0:00:03.21    \nframe=   26 fps=6.9 q=18.0 size=       1KiB time=00:00:00.43 bitrate=  11.7kbits/s speed=0.115x elapsed=0:00:03.75    \nframe=   29 fps=6.8 q=17.0 size=       1KiB time=00:00:00.48 bitrate=  10.5kbits/s speed=0.113x elapsed=0:00:04.28    \nframe=   34 fps=7.1 q=18.0 size=       1KiB time=00:00:00.56 bitrate=   8.9kbits/s speed=0.118x elapsed=0:00:04.79    \nframe=   38 fps=7.1 q=16.0 size=       1KiB time=00:00:00.63 bitrate=   8.0kbits/s speed=0.118x elapsed=0:00:05.34    \nframe=   41 fps=7.0 q=18.0 size=       1KiB time=00:00:00.68 bitrate=   7.4kbits/s speed=0.116x elapsed=0:00:05.88    \nframe=   45 fps=7.0 q=18.0 size=       1KiB time=00:00:00.75 bitrate=   6.8kbits/s speed=0.117x elapsed=0:00:06.39    \nframe=   49 fps=7.1 q=10.0 size=       1KiB time=00:00:00.81 bitrate=   6.2kbits/s speed=0.118x elapsed=0:00:06.93    \nframe=   53 fps=7.1 q=18.0 size=       1KiB time=00:00:00.88 bitrate=   5.7kbits/s speed=0.118x elapsed=0:00:07.48    \nframe=   57 fps=7.1 q=19.0 size=       1KiB time=00:00:00.95 bitrate=   5.3kbits/s speed=0.118x elapsed=0:00:08.02    \nframe=   61 fps=7.1 q=8.0 size=       1KiB time=00:00:01.01 bitrate=   5.0kbits/s speed=0.119x elapsed=0:00:08.56    \nframe=   66 fps=7.3 q=19.0 size=       1KiB time=00:00:01.10 bitrate=   4.6kbits/s speed=0.121x elapsed=0:00:09.08    \nframe=   71 fps=7.4 q=18.0 size=       1KiB time=00:00:01.18 bitrate=   4.3kbits/s speed=0.123x elapsed=0:00:09.65    \nframe=   74 fps=7.2 q=18.0 size=       1KiB time=00:00:01.23 bitrate=   4.1kbits/s speed=0.12x elapsed=0:00:10.25    \nframe=   78 fps=7.2 q=18.0 size=       1KiB time=00:00:01.30 bitrate=   3.9kbits/s speed=0.121x elapsed=0:00:10.76    \nframe=   82 fps=7.3 q=18.0 size=       1KiB time=00:00:01.36 bitrate=   3.7kbits/s speed=0.121x elapsed=0:00:11.28    \nframe=   85 fps=7.2 q=8.0 size=       1KiB time=00:00:01.41 bitrate=   3.6kbits/s speed=0.12x elapsed=0:00:11.83    \nframe=   90 fps=7.3 q=18.0 size=       1KiB time=00:00:01.50 bitrate=   3.4kbits/s speed=0.121x elapsed=0:00:12.36    \nframe=   95 fps=7.4 q=18.0 size=       1KiB time=00:00:01.58 bitrate=   3.2kbits/s speed=0.123x elapsed=0:00:12.88    \nframe=   99 fps=7.4 q=17.0 size=       1KiB time=00:00:01.65 bitrate=   3.1kbits/s speed=0.123x elapsed=0:00:13.40    \nframe=  103 fps=7.4 q=17.0 size=       1KiB time=00:00:01.71 bitrate=   2.9kbits/s speed=0.123x elapsed=0:00:13.93    \nframe=  107 fps=7.4 q=17.0 size=       1KiB time=00:00:01.78 bitrate=   2.8kbits/s speed=0.123x elapsed=0:00:14.47    \nframe=  111 fps=7.4 q=18.0 size=       1KiB time=00:00:01.83 bitrate=   2.8kbits/s speed=0.122x elapsed=0:00:15.01    \nframe=  114 fps=7.3 q=18.0 size=       1KiB time=00:00:01.90 bitrate=   2.7kbits/s speed=0.122x elapsed=0:00:15.59    \nframe=  118 fps=7.3 q=17.0 size=       1KiB time=00:00:01.96 bitrate=   2.6kbits/s speed=0.122x elapsed=0:00:16.12    \nframe=  123 fps=7.4 q=16.0 size=       1KiB time=00:00:02.05 bitrate=   2.5kbits/s speed=0.123x elapsed=0:00:16.64    \nframe=  128 fps=7.4 q=17.0 size=       1KiB time=00:00:02.13 bitrate=   2.4kbits/s speed=0.124x elapsed=0:00:17.19    \nframe=  133 fps=7.5 q=16.0 size=    1792KiB time=00:00:02.21 bitrate=6622.6kbits/s speed=0.125x elapsed=0:00:17.74    \nframe=  138 fps=7.5 q=17.0 size=    1792KiB time=00:00:02.30 bitrate=6382.6kbits/s speed=0.126x elapsed=0:00:18.31    \nframe=  142 fps=7.5 q=16.0 size=    1792KiB time=00:00:02.36 bitrate=6202.8kbits/s speed=0.125x elapsed=0:00:18.85    \nframe=  146 fps=7.5 q=17.0 size=    1792KiB time=00:00:02.43 bitrate=6032.9kbits/s speed=0.125x elapsed=0:00:19.42    \nframe=  150 fps=7.5 q=18.0 size=    1792KiB time=00:00:02.50 bitrate=5872.0kbits/s speed=0.125x elapsed=0:00:19.95    \nframe=  154 fps=7.5 q=17.0 size=    1792KiB time=00:00:02.56 bitrate=5719.5kbits/s speed=0.125x elapsed=0:00:20.53    \nframe=  159 fps=7.5 q=18.0 size=    1792KiB time=00:00:02.65 bitrate=5539.6kbits/s speed=0.126x elapsed=0:00:21.06    \nframe=  163 fps=7.5 q=19.0 size=    1792KiB time=00:00:02.71 bitrate=5403.7kbits/s speed=0.126x elapsed=0:00:21.60    \nframe=  168 fps=7.6 q=20.0 size=    1792KiB time=00:00:02.80 bitrate=5242.9kbits/s speed=0.127x elapsed=0:00:22.12    \nframe=  172 fps=7.6 q=21.0 size=    1792KiB time=00:00:02.86 bitrate=5121.0kbits/s speed=0.127x elapsed=0:00:22.64    \nframe=  175 fps=7.5 q=20.0 size=    1792KiB time=00:00:02.91 bitrate=5033.2kbits/s speed=0.126x elapsed=0:00:23.18    \nframe=  179 fps=7.5 q=20.0 size=    1792KiB time=00:00:02.98 bitrate=4920.7kbits/s speed=0.126x elapsed=0:00:23.71    \nframe=  184 fps=7.6 q=21.0 size=    1792KiB time=00:00:03.06 bitrate=4787.0kbits/s speed=0.126x elapsed=0:00:24.25    \nframe=  187 fps=7.5 q=20.0 size=    1792KiB time=00:00:03.11 bitrate=4710.2kbits/s speed=0.126x elapsed=0:00:24.77    \nframe=  192 fps=7.6 q=19.0 size=    1792KiB time=00:00:03.20 bitrate=4587.5kbits/s speed=0.126x elapsed=0:00:25.31    \nframe=  197 fps=7.6 q=19.0 size=    1792KiB time=00:00:03.28 bitrate=4471.1kbits/s speed=0.127x elapsed=0:00:25.82    \nframe=  202 fps=7.7 q=18.0 size=    1792KiB time=00:00:03.35 bitrate=4382.1kbits/s speed=0.127x elapsed=0:00:26.34    \nframe=  206 fps=7.7 q=18.0 size=    1792KiB time=00:00:03.43 bitrate=4275.7kbits/s speed=0.128x elapsed=0:00:26.88    \nframe=  210 fps=7.6 q=19.0 size=    1792KiB time=00:00:03.50 bitrate=4194.3kbits/s speed=0.127x elapsed=0:00:27.45    \nframe=  214 fps=7.6 q=18.0 size=    1792KiB time=00:00:03.56 bitrate=4115.9kbits/s speed=0.127x elapsed=0:00:27.98    \nframe=  218 fps=7.6 q=18.0 size=    1792KiB time=00:00:03.63 bitrate=4040.4kbits/s speed=0.127x elapsed=0:00:28.51    \nframe=  223 fps=7.7 q=17.0 size=    1792KiB time=00:00:03.71 bitrate=3949.8kbits/s speed=0.128x elapsed=0:00:29.02    \nframe=  228 fps=7.7 q=17.0 size=    1792KiB time=00:00:03.80 bitrate=3863.2kbits/s speed=0.129x elapsed=0:00:29.54    \nframe=  233 fps=7.7 q=16.0 size=    1792KiB time=00:00:03.88 bitrate=3780.3kbits/s speed=0.129x elapsed=0:00:30.09    \nframe=  238 fps=7.8 q=17.0 size=    1792KiB time=00:00:03.96 bitrate=3700.9kbits/s speed=0.13x elapsed=0:00:30.61    \nframe=  242 fps=7.8 q=17.0 size=    1792KiB time=00:00:04.03 bitrate=3639.7kbits/s speed=0.129x elapsed=0:00:31.18    \nframe=  245 fps=7.7 q=18.0 size=    1792KiB time=00:00:04.08 bitrate=3595.1kbits/s speed=0.129x elapsed=0:00:31.71    \nframe=  250 fps=7.8 q=20.0 size=    1792KiB time=00:00:04.16 bitrate=3523.2kbits/s speed=0.129x elapsed=0:00:32.23    \nframe=  254 fps=7.7 q=21.0 size=    1792KiB time=00:00:04.23 bitrate=3467.7kbits/s speed=0.129x elapsed=0:00:32.79    \nframe=  259 fps=7.8 q=20.0 size=    3584KiB time=00:00:04.31 bitrate=6801.6kbits/s speed=0.129x elapsed=0:00:33.34    \nframe=  264 fps=7.8 q=16.0 size=    3584KiB time=00:00:04.40 bitrate=6672.8kbits/s speed=0.13x elapsed=0:00:33.89    \nframe=  268 fps=7.8 q=18.0 size=    3584KiB time=00:00:04.46 bitrate=6573.2kbits/s speed=0.13x elapsed=0:00:34.44    \nframe=  272 fps=7.8 q=18.0 size=    3584KiB time=00:00:04.53 bitrate=6476.5kbits/s speed=0.13x elapsed=0:00:34.97    \nframe=  276 fps=7.8 q=24.0 size=    3584KiB time=00:00:04.60 bitrate=6382.6kbits/s speed=0.13x elapsed=0:00:35.51    \nframe=  276 fps=7.7 q=24.0 size=    3584KiB time=00:00:04.60 bitrate=6382.6kbits/s speed=0.128x elapsed=0:00:36.06    \nframe=  276 fps=7.5 q=24.0 size=    3584KiB time=00:00:04.60 bitrate=6382.6kbits/s speed=0.126x elapsed=0:00:36.60    \nframe=  276 fps=7.4 q=24.0 size=    3584KiB time=00:00:04.60 bitrate=6382.6kbits/s speed=0.124x elapsed=0:00:37.14    \nframe=  276 fps=7.3 q=24.0 size=    3584KiB time=00:00:04.60 bitrate=6382.6kbits/s speed=0.122x elapsed=0:00:37.65    \nframe=  276 fps=7.2 q=24.0 size=    3584KiB time=00:00:04.60 bitrate=6382.6kbits/s speed=0.12x elapsed=0:00:38.18    \n[out#0/webm @ 0000024f21eb8f80] video:4569KiB audio:0KiB subtitle:0KiB other streams:0KiB global headers:0KiB muxing overhead: 0.061002%\nframe=  300 fps=7.8 q=21.0 Lsize=    4572KiB time=00:00:05.00 bitrate=7490.3kbits/s speed=0.13x elapsed=0:00:38.37    \n",
  "seconds": 38.66881442070007,
  "probe_out": {}
}